<?xml version="1.0" encoding="utf-8"?>
<!-- Generator: Adobe Illustrator 27.4.0, SVG Export Plug-In . SVG Version: 6.00 Build 0)  -->
<svg version="1.1" id="图层_1" xmlns="http://www.w3.org/2000/svg" xmlns:xlink="http://www.w3.org/1999/xlink" x="0px" y="0px"
	 viewBox="0 0 128 128" style="enable-background:new 0 0 128 128;" xml:space="preserve">
<style type="text/css">
	.st0{fill:none;}
</style>
<path class="st0" d="M101.8,64c0,5.8-1.3,11.3-3.7,16.3c-0.9,1.8-1.9,3.5-3,5.2c-6.3,9.1-16.5,15.3-28.2,16.2c-1,0.1-2,0.1-3,0.1
	s-2,0-3-0.1c-11.7-0.9-21.9-7.1-28.2-16.2c-1.1-1.6-2.1-3.4-3-5.2c-2.4-4.9-3.7-10.4-3.7-16.3s1.3-11.3,3.7-16.3
	c0.9-1.8,1.9-3.6,3-5.2c6.3-9.1,16.5-15.3,28.2-16.2c1-0.1,2-0.1,3-0.1s2,0,3,0.1c11.7,0.9,21.9,7.1,28.2,16.2
	c1.1,1.6,2.1,3.4,3,5.2C100.5,52.7,101.8,58.2,101.8,64z"/>
<path d="M18.5,63.6c0-0.4,0-0.7,0-1.1v0c0-0.4,0-0.7,0-1.1c0.6-10.5,4.8-20.5,11.9-28.5c0.3-0.3,0.5-0.6,0.8-0.8c0,0,0-0.1,0.1-0.1
	c1.4-1.5,2.9-2.8,4.5-4.1c0,0,0.1-0.1,0.1-0.1c0.2-0.2,0.5-0.4,0.8-0.6c0.3-0.2,0.6-0.5,0.9-0.7c0.4-0.3,0.7-0.5,1.1-0.8
	c0.1,0,0.1-0.1,0.2-0.1c0.3-0.2,0.6-0.4,0.9-0.6c0.4-0.3,0.8-0.5,1.3-0.8c6.3-3.6,13.5-5.6,20.8-6c0.2,0,0.3,0,0.5,0
	c0.4,0,0.9,0,1.3,0h0.6c0.4,0,0.9,0,1.3,0c0.2,0,0.3,0,0.5,0c7.3,0.3,14.5,2.4,20.8,6c0.4,0.2,0.8,0.5,1.3,0.8
	c0.3,0.2,0.6,0.4,0.9,0.6c0.1,0,0.1,0.1,0.2,0.1c0.4,0.2,0.8,0.5,1.1,0.8c0.3,0.2,0.6,0.4,0.9,0.7c0.2,0.2,0.5,0.4,0.8,0.6
	c0,0,0.1,0.1,0.1,0.1c1.6,1.3,3.1,2.7,4.5,4.1c0,0,0.1,0.1,0.1,0.1c0.3,0.3,0.5,0.6,0.8,0.8c7.1,8,11.3,18.1,11.9,28.5
	c0,0.4,0,0.7,0,1.1v0c0,0.4,0,0.7,0,1.1V64c0,0.4,0,0.9,0,1.3c0,0.5,0,1.1-0.1,1.6c-0.1,1.1-0.2,2.2-0.3,3.2c-0.1,0.5-0.2,1-0.2,1.4
	c0,0.1,0,0.3-0.1,0.4c-0.1,0.4-0.1,0.8-0.2,1.2c0,0.1,0,0.2-0.1,0.4c-0.1,0.5-0.2,1-0.3,1.4c-0.1,0.4-0.2,0.7-0.3,1.1
	c-0.1,0.4-0.2,0.7-0.3,1.1c-0.2,0.5-0.3,1-0.5,1.5c-2.2,6.4-6,12.6-11.4,18.2c-0.1,0.1-0.1,0.1-0.2,0.2c-0.3,0.3-0.6,0.7-1,1
	c3.9,2.9,7.8,5.8,11.8,8.7C117.2,95.9,124,80.7,124,64c0-33.1-26.9-60-60-60S4,30.9,4,64h14.5V63.6z"/>
<rect x="4" y="80.5" transform="matrix(-1 -9.514935e-11 9.514935e-11 -1 22.51 175.5354)" width="14.5" height="14.5"/>
<g>
	<path d="M67,26.3v75.4c-1,0.1-2,0.1-3,0.1s-2,0-3-0.1V26.3c1-0.1,2-0.1,3-0.1S66,26.2,67,26.3z"/>
	<path d="M98.2,80.3c-0.9,1.8-1.9,3.5-3,5.2L67,69.2l-6-3.5L58,64L29.8,47.7c0.9-1.8,1.9-3.6,3-5.2L61,58.8l3,1.7l3,1.7l3,1.7
		L98.2,80.3z"/>
	<path d="M98.2,47.7L70,64l-3,1.7l-6,3.5L32.8,85.5c-1.1-1.6-2.1-3.4-3-5.2L58,64l3-1.7l3-1.7l3-1.7l28.2-16.3
		C96.3,44.2,97.3,45.9,98.2,47.7z"/>
</g>
</svg>
